<?xml version="1.0" encoding="utf-8"?>
<svg xmlns="http://www.w3.org/2000/svg" viewBox="0 0 500 500" width="48px" height="48px" xmlns:bx="https://boxy-svg.com">
  <defs>
    <radialGradient gradientUnits="userSpaceOnUse" cx="250" cy="439.52" r="140.589" id="gradient-0">
      <stop offset="0" style="stop-color: rgb(187, 77, 0)"/>
      <stop offset="1" style="stop-color: rgb(49.487% 12.887% 0%)"/>
    </radialGradient>
    <radialGradient gradientUnits="userSpaceOnUse" cx="250" cy="439.52" r="140.589" id="gradient-1">
      <stop offset="0" style="stop-color: rgb(187, 77, 0)"/>
      <stop offset="1" style="stop-color: rgb(49.487% 12.887% 0%)"/>
    </radialGradient>
    <radialGradient gradientUnits="userSpaceOnUse" cx="118.05" cy="103.397" r="46.871" id="gradient-2">
      <stop offset="0" style="stop-color: rgb(254, 230, 133)"/>
      <stop offset="1" style="stop-color: rgb(58.371% 51.283% 14.463%)"/>
    </radialGradient>
    <radialGradient gradientUnits="userSpaceOnUse" cx="118.05" cy="103.397" r="46.871" id="gradient-3" gradientTransform="matrix(1.43478, 0, 0, 1.346156, 257.409037, 187.353451)">
      <stop offset="0" style="stop-color: rgb(254, 230, 133)"/>
      <stop offset="1" style="stop-color: rgb(58.371% 51.283% 14.463%)"/>
    </radialGradient>
    <radialGradient gradientUnits="userSpaceOnUse" cx="118.05" cy="103.397" r="46.871" id="gradient-4" gradientTransform="matrix(0.78261, 0, 0, 0.605767, -25.283765, 81.010125)">
      <stop offset="0" style="stop-color: rgb(254, 230, 133)"/>
      <stop offset="1" style="stop-color: rgb(58.371% 51.283% 14.463%)"/>
    </radialGradient>
  </defs>
  <rect x="0.01" y="0.406" width="499.979" height="499.188" style="fill: rgb(70, 25, 1); stroke: rgb(70, 25, 1);" rx="86.231" ry="86.231"/>
  <circle style="fill: rgba(123, 51, 6, 0.282); stroke: rgba(123, 51, 6, 0);" cx="250" cy="250" r="207.534"/>
  <circle style="fill: url(&quot;#gradient-0&quot;); stroke: rgb(131, 31, 31);" cx="250" cy="439.52" r="140.589" transform="matrix(1.32614, 0, 0, 1.286279, -81.535088, -69.27475)"/>
  <circle style="stroke: rgb(131, 31, 31); fill: url(&quot;#gradient-1&quot;);" cx="250" cy="439.52" r="140.589" transform="matrix(0.891286, 0, 0, 0.927525, 27.178511, -157.665802)"/>
  <path d="M 118.05 50.413 L 127.33 92.907 L 164.921 103.397 L 127.33 113.887 L 118.05 156.381 L 108.77 113.887 L 71.179 103.397 L 108.77 92.907 Z" bx:shape="star 118.05 103.397 46.871 52.984 0.28 4 1@6559b509" style="fill: url(&quot;#gradient-2&quot;); stroke: rgb(152, 133, 58);"/>
  <path d="M 426.786 255.217 L 440.101 312.42 L 494.036 326.542 L 440.101 340.664 L 426.786 397.867 L 413.471 340.664 L 359.536 326.542 L 413.471 312.42 Z" bx:shape="star 426.786 326.542 67.25 71.325 0.28 4 1@08682006" style="stroke: rgb(152, 133, 58); fill: url(&quot;#gradient-3&quot;); stroke-width: 1;"/>
  <path d="M 67.104 111.549 L 74.367 137.29 L 103.786 143.645 L 74.367 150 L 67.104 175.741 L 59.841 150 L 30.422 143.645 L 59.841 137.29 Z" bx:shape="star 67.104 143.645 36.682 32.096 0.28 4 1@ce76b31e" style="stroke: rgb(152, 133, 58); fill: url(&quot;#gradient-4&quot;); stroke-width: 1;"/>
  <circle style="stroke: rgb(0, 0, 0);" cx="201.602" cy="205.29" r="38.192" transform="matrix(0.43974, 0, 0, 0.949755, 108.874001, 32.013714)"/>
  <circle style="stroke: rgb(0, 0, 0);" cx="201.602" cy="205.29" r="38.192" transform="matrix(0.43974, 0, 0, 0.949755, 202.564514, 32.491264)"/>
</svg>